<svg xmlns="http://www.w3.org/2000/svg" xmlns:xlink="http://www.w3.org/1999/xlink" version="1.1" x="0px" y="0px" viewBox="10 45 80 10" style="enable-background:new 0 0 100 100;" xml:space="preserve">
  <path stroke="#ffffff" fill="#ffffff" d="M11,48c4.5917969,0,6.8417969,1.3852539,9.2246094,2.8515625C22.7402344,52.3994141,25.3408203,54,30.4980469,54  s7.7578125-1.6005859,10.2734375-3.1484375C43.1542969,49.3852539,45.4052734,48,49.9970703,48  c4.5927734,0,6.84375,1.3852539,9.2265625,2.8515625C61.7392578,52.3994141,64.3398438,54,69.4980469,54  s7.7597656-1.6005859,10.2753906-3.1484375C82.15625,49.3852539,84.4072266,48,89,48c0.5527344,0,1-0.4477539,1-1s-0.4472656-1-1-1  c-5.1582031,0-7.7597656,1.6005859-10.2753906,3.1484375C76.3417969,50.6147461,74.0908203,52,69.4980469,52  c-4.5917969,0-6.8427734-1.3852539-9.2255859-2.8515625C57.7568359,47.6005859,55.1552734,46,49.9970703,46  s-7.7587891,1.6005859-10.2744141,3.1484375C37.3398438,50.6147461,35.0898438,52,30.4980469,52  s-6.8417969-1.3852539-9.2246094-2.8515625C18.7578125,47.6005859,16.1572266,46,11,46c-0.5527344,0-1,0.4477539-1,1  S10.4472656,48,11,48z"/>
</svg>
