<?xml version="1.0" encoding="utf-8" ?>
<svg xmlns="http://www.w3.org/2000/svg" xmlns:xlink="http://www.w3.org/1999/xlink" width="1024" height="1024">
	<path fill="#FAAD17" d="M0 0L1024 0L1024 1024L0 1024L0 0Z"/>
	<path fill="#0D0D0D" d="M191.976 527.984L207.987 528.003C207.99 533.332 208.124 538.697 207.985 544.021L191.992 543.996L191.976 527.984Z"/>
	<path fill="#0D0D0D" d="M831.974 239.987L848.01 239.994L848.02 256.019L832.007 255.987L831.974 239.987Z"/>
	<path fill="#0D0D0D" d="M815.976 751.975L832.006 751.99L832.022 784.023L816.009 783.992C815.822 773.332 815.981 762.638 815.976 751.975Z"/>
	<path fill="#0D0D0D" d="M896.009 95.9967L912.019 95.9765L912.016 143.986L896.015 144.001C895.83 128.007 896.005 111.993 896.009 95.9967Z"/>
	<path fill="#0D0D0D" d="M143.976 719.983L176.011 719.989L176.022 736.018L160.014 736.02L160.018 752.015L143.996 752.025L143.993 736.004L143.976 719.983Z"/>
	<path fill="#0D0D0D" d="M783.971 783.973L816.009 783.992L816.025 800.023L800.022 800.019L800.025 816.023L784.008 815.986C783.796 805.332 783.975 794.631 783.971 783.973Z"/>
	<path fill="#313335" d="M128.019 703.905C138.046 704.384 148.224 704.046 158.267 704.034C163.974 704.027 170.364 704.592 175.976 703.824L176.011 719.989L143.976 719.983L143.993 736.004L128.032 736.001L127.986 720.013L128.019 703.905Z"/>
	<path fill="#0D0D0D" d="M912.016 143.986L944.009 143.978L944.019 160.009L960.002 159.984L960.011 175.991L928.029 175.994L928.005 160.013L912.01 160.014L912.016 143.986Z"/>
	<path fill="#0D0D0D" d="M432.006 352L448.013 351.986L448.01 399.997L415.984 400.007L416.001 383.988L431.99 383.999L432.006 352Z"/>
	<path fill="#0D0D0D" d="M319.985 144.001L335.995 143.997L336.008 192.024L320.001 192.017L320.006 207.979L304.016 207.987L303.997 176.005L320.001 175.998L319.985 144.001Z"/>
	<path fill="#0D0D0D" d="M111.982 655.99L128.017 655.998L128.031 688.032L128.019 703.905L127.986 720.013L111.994 720.025L111.986 688.027L95.993 688.031L95.9811 671.991L111.985 671.984L111.982 655.99Z"/>
	<path fill="#0D0D0D" d="M159.918 607.968L176.017 607.98L176.035 624.022C176.029 634.662 176.304 645.393 175.991 656.023Q159.984 656.089 143.976 655.986L143.981 607.986L159.918 607.968Z"/>
	<path fill="#0D0D0D" d="M224.008 672.004L239.998 672.003L240.024 688.022L224.013 688.015L224.021 704.019L208.01 704.019L208.02 720.016C197.356 720.008 186.674 720.126 176.011 719.989L175.976 703.824L176.007 688.017L191.943 687.995L223.999 687.967L224.008 672.004Z"/>
	<path fill="#C96C0C" d="M143.976 655.986Q159.984 656.089 175.991 656.023L176.007 688.017L175.976 703.824C170.364 704.592 163.974 704.027 158.267 704.034C148.224 704.046 138.046 704.384 128.019 703.905L128.031 688.032L128.017 655.998L143.976 655.986Z"/>
	<path fill="#3F4242" d="M128.031 688.032L176.007 688.017L175.976 703.824C170.364 704.592 163.974 704.027 158.267 704.034C148.224 704.046 138.046 704.384 128.019 703.905L128.031 688.032Z"/>
	<path fill="#0D0D0D" d="M560.016 928.012L575.996 928.008L576.002 944.005C602.658 943.996 629.361 943.641 656.012 943.995L656.024 960.019L512.004 960.027L512.025 944.018L560.01 944.014L560.016 928.012Z"/>
	<path fill="#0D0D0D" d="M703.969 815.972L719.984 815.988L751.962 816.035L752.007 831.993L752.025 848.025L720.023 848.023L720.027 880.024C709.362 880.017 698.671 880.16 688.009 879.99C687.815 869.333 687.98 858.638 687.975 847.977L703.97 847.984L703.969 815.972Z"/>
	<path fill="#3F4242" d="M719.984 815.988L751.962 816.035L752.007 831.993C741.359 831.829 730.681 831.985 720.03 831.983L719.984 815.988Z"/>
	<path fill="#0D0D0D" d="M784.012 383.992L800.009 383.98L800.02 400.003L816.01 399.984L816.02 432.005L832.011 431.986L832.016 511.993L815.976 512.017L815.98 448.017L800.014 448.009L799.991 416.007L784.006 416.004L784.012 383.992Z"/>
	<path fill="#0D0D0D" d="M960.011 175.991L976.004 175.995L976.016 208.015L960.014 208.015L960.017 224.018L943.997 224.026L943.988 208.021L896.018 208.018L896.02 224.019L880.016 224.016L880.022 240.019L848.01 239.994L847.981 223.983L863.981 223.992L863.98 207.99L879.982 207.996L879.989 191.993L960.004 192.009L960.011 175.991Z"/>
	<path fill="#C96C0C" d="M175.977 543.986L191.992 543.996L207.985 544.021L208.029 560.001L224.007 560.004L224.024 608.013L207.988 608.002L208.025 624.01L176.035 624.022L176.017 607.98L159.918 607.968C160.267 602.745 159.984 597.278 159.997 592.032L159.977 559.988L175.983 559.981L175.977 543.986Z"/>
	<path fill="#0D0D0D" d="M175.977 543.986L191.992 543.996L192.034 592.02L159.997 592.032L159.977 559.988L175.983 559.981L175.977 543.986Z"/>
	<path fill="#0D0D0D" d="M448.01 399.997L464.012 399.981L464.023 415.997L480.014 415.979L480.027 432.002L496.012 431.98L496.024 448L528.01 447.981L528.023 463.996L576.017 463.973L576.009 495.997L527.994 496.012L527.991 480.025L495.998 480.03L495.98 464.027L480.001 464.029L479.982 448.023L464.006 448.024L463.997 432.018L448.003 432.021L448.01 399.997Z"/>
	<path fill="#0D0D0D" d="M848.017 575.991L880.016 575.97L880.023 688.026L864.058 688.011L848.01 687.961L848.026 752.02L832.006 751.99L831.99 688.017L831.994 656.011L847.969 655.988L847.985 623.988L863.983 623.996L863.983 608.017L847.995 608.014L848.017 575.991Z"/>
	<path fill="#0D0D0D" d="M543.979 239.993L575.994 239.999L576.022 336.002L592.015 335.991C592.012 367.984 592.445 400.036 591.986 432.021L575.991 432.037L575.985 368.031L559.989 368.034L559.978 352.032L543.989 352.037L543.972 287.995L559.991 287.983L559.989 272.03L543.993 272.033L543.979 239.993Z"/>
	<path fill="#0D0D0D" d="M735.976 63.9903L848.015 63.9759L848.003 79.9988L752.011 80.0129L752.03 112.017L688.015 112.018L688.027 128.02L671.976 128.024L639.992 127.994L639.98 95.9897L687.981 95.9815L687.979 79.9894L735.98 79.9798L735.976 63.9903Z"/>
	<path fill="#3F4242" d="M207.987 528.003L256.031 527.982L256.005 623.992L239.988 623.981L239.98 639.938L239.987 656.015L239.998 672.003L224.008 672.004L223.999 687.967L191.943 687.995L176.007 688.017L175.991 656.023C176.304 645.393 176.029 634.662 176.035 624.022L208.025 624.01L207.988 608.002L224.024 608.013L224.007 560.004L208.029 560.001L207.985 544.021C208.124 538.697 207.99 533.332 207.987 528.003Z"/>
	<path fill="#313335" d="M239.98 639.938L239.987 656.015L239.998 672.003L224.008 672.004L223.999 687.967L191.943 687.995C192.545 677.462 192.035 666.575 192.015 656.007L208.007 655.989L207.981 639.994Q223.981 640.102 239.98 639.938Z"/>
	<path fill="#0D0D0D" d="M207.994 655.997L224 655.973L224.008 672.004L207.993 672.02L207.994 655.997Z"/>
	<path fill="#0D0D0D" d="M335.986 111.998L384.008 111.99L384.021 143.984L400.017 143.98L400.033 159.995L416.019 159.978L416.022 176.024L400.014 176.018L400.005 335.967L384.052 335.98L384.044 271.967L368.045 271.965L368.02 256.012L352.024 255.988L352.001 223.979L351.983 207.992L335.996 208.022L336.008 192.024L335.995 143.997L335.986 111.998Z"/>
	<path fill="#313335" d="M368.013 144.019L383.984 144.005L383.994 192.009L368.008 191.988L367.998 160.011L368.013 144.019Z"/>
	<path fill="#E3CBB2" d="M335.995 143.997L352.002 144.021L351.998 160.022L367.998 160.011L368.008 191.988L367.987 208.035L351.983 207.992L335.996 208.022L336.008 192.024L335.995 143.997Z"/>
	<path fill="#FAAD17" d="M368.008 191.988L383.994 192.009L384.02 256.014L368.02 256.012L352.024 255.988L352.001 223.979L351.983 207.992L367.987 208.035L368.008 191.988Z"/>
	<path fill="#0D0D0D" d="M239.977 751.994L256.011 752L256.029 831.995L272.016 831.98L272.037 848.033L319.996 848.001L352.011 848.011L367.988 848.01L368.003 863.99L367.987 880.024L384.005 880.011L384.011 943.999L384.019 960.021L239.995 960.035L239.996 943.989L223.994 944.008L207.994 944.037L207.982 895.988L255.985 895.981L255.99 848.027L239.991 848.034L239.977 751.994Z"/>
	<path fill="#3F4242" d="M240.016 912.028L287.973 912.043L287.976 943.983L239.996 943.989L223.994 944.008L224.021 928.027L240.042 928.025L240.016 912.028Z"/>
	<path fill="#3F4242" d="M352.011 848.011L367.988 848.01L368.003 863.99L367.987 880.024L384.005 880.011L384.011 943.999L320.02 944.005L320 912.011L352.041 911.997L352.002 895.983L272.034 895.988L272.037 848.033L319.996 848.001L352.011 848.011Z"/>
	<path fill="#3F4242" d="M320.001 192.017L336.008 192.024L335.996 208.022L351.983 207.992L352.001 223.979L352.024 255.988L368.02 256.012L368.045 271.965L384.044 271.967L384.052 335.98L400.005 335.967L431.998 335.977L432.006 352L431.99 383.999L416.001 383.988L415.984 400.007L415.991 416.002L399.988 415.99L399.99 432.013L416.018 431.984L416.015 448.038L384.001 448.001L384.012 512.023L367.897 511.999L335.983 511.98L336.006 496L335.992 480.001Q344.009 479.977 352.026 480.052L352.008 464.027L368.022 464.023L367.996 432.013L384.023 432.017L384.008 399.981L368.013 399.998L368.007 416.02L352.01 416.009L352.012 432.012Q344.016 431.992 336.021 432.077L336.025 415.989L256.009 416.007L256.01 400.006L272.009 399.994L271.986 368.021L255.982 368.051L255.973 287.979L272.02 287.96L272.016 304.015L288.038 304.01L287.989 288.01L304.042 288.034L304.026 239.984L288.002 239.998L288.005 224.039L304.038 224.026L304.016 207.987L320.006 207.979L320.001 192.017Z"/>
	<path fill="#0D0D0D" d="M335.99 223.986L352.001 223.979L352.024 255.988L335.999 256.005L335.99 223.986Z"/>
	<path fill="#5F4E38" d="M335.992 480.001Q344.009 479.977 352.026 480.052L367.903 480.063L367.897 511.999L335.983 511.98L336.006 496L335.992 480.001Z"/>
	<path fill="#0D0D0D" d="M255.973 287.979L272.02 287.96L272.016 304.015L288.038 304.01L335.995 303.993L336.002 367.988L271.986 368.021L255.982 368.051L255.973 287.979Z"/>
	<path fill="#E3CBB2" d="M271.992 320L304.008 320.006L304.013 336.001L272.004 336.023L271.992 320Z"/>
	<path fill="#3F4242" d="M624.018 527.995L656.002 527.998L671.994 527.988L672.007 544.01L687.996 543.989L688.01 560.007L688.022 624.014L704.009 623.999L703.981 688.029L719.958 688.038L719.956 772.761C719.956 787.153 719.654 801.608 719.984 815.988L703.969 815.972L703.97 847.984L687.975 847.977C687.98 858.638 687.815 869.333 688.009 879.99L688.024 928.02L672.017 928.019L672.022 944.02L656.012 943.995C629.361 943.641 602.658 943.996 576.002 944.005L575.996 928.008L560.016 928.012L560.01 944.014L512.025 944.018L512.001 928.007L480.001 928.026L479.996 912.016L416.008 912.008L416.018 928.019L400.012 928.011L400.018 944.02L384.011 943.999L384.005 880.011L367.987 880.024L368.003 863.99L400.003 863.989L399.995 880.013L462.308 879.991C473.504 879.99 484.818 880.334 496.002 879.885C500.656 878.907 507.095 879.849 511.921 879.936L511.906 863.911Q519.957 863.786 528.007 863.98L543.999 864.019L543.995 880.02L559.993 880.008L575.958 879.98C575.92 876.57 575.176 866.571 576.435 863.955C575.077 859.981 576.027 852.382 576.053 847.994L640.028 848.015L639.984 816.008L656.03 816.012L655.977 800.004L672.03 800.022L671.99 784.015L688.029 784.021L688.012 720.006L672.009 720.01L671.963 703.999L688.031 704.012L688.008 688.005L656 688.027L655.998 608.029L640 608.026L640.001 560.013L624.013 560.013L624.018 527.995Z"/>
	<path fill="#0D0D0D" d="M656.002 527.998L671.994 527.988L672.007 544.01L687.996 543.989L688.01 560.007L656 560.015L656.002 527.998Z"/>
	<path fill="#0D0D0D" d="M655.973 879.977L688.009 879.99L688.024 928.02L672.017 928.019L672.022 944.02L656.012 943.995C655.739 922.67 655.977 901.306 655.973 879.977Z"/>
	<path fill="#0D0D0D" d="M511.906 863.911Q519.957 863.786 528.007 863.98L543.999 864.019L543.995 880.02L559.993 880.008L575.958 879.98C575.92 876.57 575.176 866.571 576.435 863.955L592.024 863.959L592.045 879.977L608.021 879.959L608.035 895.978L624.018 895.959L624.066 912.018L511.971 911.975L512.001 928.007L480.001 928.026L479.996 912.016L416.008 912.008L416.018 928.019L400.012 928.011L400.018 944.02L384.011 943.999L384.005 880.011L367.987 880.024L368.003 863.99L400.003 863.989L399.995 880.013L462.308 879.991C473.504 879.99 484.818 880.334 496.002 879.885C500.656 878.907 507.095 879.849 511.921 879.936L511.906 863.911Z"/>
	<path fill="#8694A3" d="M511.906 863.911Q519.957 863.786 528.007 863.98L543.999 864.019L543.995 880.02L559.993 880.008L559.984 895.987L496.013 895.998L496.002 879.885C500.656 878.907 507.095 879.849 511.921 879.936L511.906 863.911Z"/>
	<path fill="#0D0D0D" d="M192.004 112.022L207.996 112.005L207.988 144.025L223.988 144L223.988 160.026L255.988 160.007L255.989 176.024L271.999 175.991L271.991 208.02L288.003 207.991L288.005 224.039L288.002 239.998L304.026 239.984L304.042 288.034L287.989 288.01L288.038 304.01L272.016 304.015L272.02 287.96L255.973 287.979L255.982 368.051L271.986 368.021L272.009 399.994L256.01 400.006L192.01 399.981L192.04 432.029L175.989 432.035L175.991 416.025L160.004 416.012L160.028 432.024L144.009 432.014L144.032 447.985L160.027 447.982L160.005 464.009L143.991 464.023L127.988 464.043L127.979 448.027L111.993 448.036L111.987 432.035L95.992 432.041L95.9785 416.032L79.9906 416.037L79.9752 351.981L111.978 351.973L111.975 335.988L127.987 335.978L127.976 271.986L143.994 271.98L143.979 239.994L160.01 240.002L159.997 207.999L176.017 208.008L176 144.017L192.02 144.015L192.004 112.022Z"/>
	<path fill="#FAAD17" d="M191.992 175.991L208.008 175.994L208.018 208.053L208.018 224.009L192.002 224.015L191.992 175.991Z"/>
	<path fill="#5F4E38" d="M208.008 175.994L240.008 175.995L240.011 208.016C229.379 208.017 218.638 207.711 208.018 208.053L208.008 175.994Z"/>
	<path fill="#B45E0B" d="M288.002 239.998L304.026 239.984L304.042 288.034L287.989 288.01L288.038 304.01L272.016 304.015L272.02 287.96L255.973 287.979L255.982 368.051L271.986 368.021L272.009 399.994L256.01 400.006L192.01 399.981C165.391 399.461 138.666 399.973 112.036 399.991L112.022 368.03L144.041 368.033L144.031 352.039L160.052 352.033L160.02 272.01L176.033 272.022L176.005 255.992L207.992 255.992L207.979 239.986L288.002 239.998Z"/>
	<path fill="#0D0D0D" d="M368.013 399.998L384.008 399.981L384.023 432.017L367.996 432.013L368.022 464.023L352.008 464.027L352.026 480.052Q344.009 479.977 335.992 480.001L336.006 496L335.983 511.98L335.999 527.995L336 543.997L339.751 544.03L352.001 544.014L351.998 560.036L356.137 560.064C360.186 560 364.255 559.85 368.297 560.147C373.487 559.708 378.798 559.956 384.006 559.987L384.039 624.021L368.022 624.028L368.013 656.007L368.012 672.363L368.006 688.016L304.047 688.035L304.013 704.009C303.994 709.341 303.867 714.696 304.013 720.025L304.006 751.997L272.01 751.988L272.024 736.021L256.024 736.001C255.382 709.399 255.983 682.641 255.99 656.022L239.987 656.015L239.98 639.938L239.988 623.981L256.005 623.992L256.031 527.982L207.987 528.003L207.974 511.983L223.987 511.981L223.976 496.036L143.981 496.043L143.983 479.981L143.991 464.023L160.005 464.009L160.027 447.982L144.032 447.985L144.009 432.014L160.028 432.024L160.004 416.012L175.991 416.025L175.989 432.035L192.04 432.029L192.01 399.981L256.01 400.006L256.009 416.007L336.025 415.989L336.021 432.077Q344.016 431.992 352.012 432.012L352.01 416.009L368.007 416.02L368.013 399.998Z"/>
	<path fill="#E3CBB2" d="M160.005 464.009L159.989 479.985L143.983 479.981L143.991 464.023L160.005 464.009Z"/>
	<path fill="#3F4242" d="M304.013 704.009C303.994 709.341 303.867 714.696 304.013 720.025L304.006 751.997L272.01 751.988L272.024 736.021L272.036 704.042L304.013 704.009Z"/>
	<path fill="#73859A" d="M271.983 495.992L336.006 496L335.983 511.98L335.999 527.995L303.983 527.997L303.992 544.112L303.998 591.987L288.07 591.989L271.986 591.973L271.983 495.992Z"/>
	<path fill="#E3CBB2" d="M192.01 399.981L256.01 400.006L256.009 416.007L336.025 415.989L336.021 432.077L336.021 448.011L320.003 448.009L320.017 464.009L304.013 464.003L304.023 480.013L240.017 480.006L240.013 463.991L207.987 463.995L207.998 479.991L192.035 479.991L192.026 463.982C181.357 463.987 170.672 463.877 160.005 464.009L160.027 447.982L144.032 447.985L144.009 432.014L160.028 432.024L160.004 416.012L175.991 416.025L175.989 432.035L192.04 432.029L192.01 399.981Z"/>
	<path fill="#E3CBB2" d="M303.983 527.997L335.999 527.995L336 543.997L339.751 544.03L352.001 544.014L351.998 560.036L356.137 560.064C360.186 560 364.255 559.85 368.297 560.147C373.487 559.708 378.798 559.956 384.006 559.987L384.039 624.021L368.022 624.028L368.013 656.007L368.012 672.363L368.006 688.016L304.047 688.035L304.036 670.982L304.02 655.961L303.562 655.921C293.117 656.339 282.479 655.988 272.018 655.999L271.986 591.973L288.07 591.989L303.998 591.987L303.992 544.112L303.983 527.997Z"/>
	<path fill="#0D0D0D" d="M368.297 560.147C373.487 559.708 378.798 559.956 384.006 559.987L384.039 624.021L368.022 624.028L368.013 656.007L368.012 672.363L368.006 688.016L304.047 688.035L304.036 670.982L304.02 655.961L304.009 639.989L335.995 639.988L335.992 623.995L351.995 623.989L351.992 607.994L368.002 607.99L368.064 578.235C368.076 572.92 368.449 567.267 367.778 561.999L368.297 560.147Z"/>
	<path fill="#C96C0C" d="M304.02 655.961L368.013 656.007L368.012 672.363L368.006 688.016L304.047 688.035L304.036 670.982L304.02 655.961Z"/>
	<path fill="#B45E0B" d="M304.02 655.961L368.013 656.007L368.012 672.363C363.297 671.155 356.511 671.958 351.579 671.961C336.094 671.969 320.253 672.761 304.81 671.934L304.036 670.982L304.02 655.961Z"/>
	<path fill="#E3CBB2" d="M464.026 624.03L495.95 624.074L496.059 624.329L495.951 639.651L496.053 639.967L496.011 655.998L496.007 688.007L512.015 688.01L512.005 703.981L511.992 832.009L511.999 848.018L528.012 848.016L528.007 863.98Q519.957 863.786 511.906 863.911L511.921 879.936C507.095 879.849 500.656 878.907 496.002 879.885C484.818 880.334 473.504 879.99 462.308 879.991L399.995 880.013L400.003 863.989L368.003 863.99L367.988 848.01L352.011 848.011L319.996 848.001L272.037 848.033L272.016 831.98L256.029 831.995L256.011 752C256.114 746.674 256.023 741.328 256.024 736.001L272.024 736.021L272.01 751.988L304.006 751.997L304.013 720.025C303.867 714.696 303.994 709.341 304.013 704.009L304.047 688.035L368.006 688.016L368.012 672.363L368.013 656.007L383.973 655.992L415.979 655.983L415.981 639.987L447.987 639.99L464.001 640.02L464.026 624.03Z"/>
	<path fill="#8694A3" d="M447.987 639.99L464.001 640.02L464.023 655.971L447.994 655.987L447.987 639.99Z"/>
	<path fill="#73859A" d="M432.003 656.019L447.994 655.987L447.996 687.991L431.997 687.996L432.003 656.019Z"/>
	<path fill="#313335" d="M464.026 624.03L495.95 624.074L496.059 624.329L495.951 639.651L496.053 639.967L496.011 655.998Q483.126 656.046 470.242 655.911L464.023 655.971L464.001 640.02L464.026 624.03Z"/>
	<path fill="#3F4242" d="M495.951 639.651L496.053 639.967L496.011 655.998Q483.126 656.046 470.242 655.911C473.408 655.435 476.867 655.566 480.078 655.455L480.125 640.18C485.079 640.058 491.15 640.691 495.951 639.651Z"/>
	<path fill="#73859A" d="M383.99 687.991C399.988 688.002 416 688.158 431.997 687.996L432.002 703.99L399.985 703.999L400 719.991L368.011 720.002L367.989 703.992C367.936 698.669 367.999 693.339 368.006 688.016C373.33 688.005 378.666 687.925 383.99 687.991Z"/>
	<path fill="#0D0D0D" d="M368.006 688.016C373.33 688.005 378.666 687.925 383.99 687.991L384.034 704.031L367.989 703.992C367.936 698.669 367.999 693.339 368.006 688.016Z"/>
	<path fill="#0D0D0D" d="M415.981 639.987L447.987 639.99L447.994 655.987L432.003 656.019L431.997 687.996C416 688.158 399.988 688.002 383.99 687.991C378.666 687.925 373.33 688.005 368.006 688.016L368.012 672.363L368.013 656.007L383.973 655.992L415.979 655.983L415.981 639.987Z"/>
	<path fill="#313335" d="M368.013 656.007L383.973 655.992L383.99 687.991C378.666 687.925 373.33 688.005 368.006 688.016L368.012 672.363L368.013 656.007Z"/>
	<path fill="#73859A" d="M304.047 688.035L368.006 688.016C367.999 693.339 367.936 698.669 367.989 703.992L368.011 720.002L368.024 736.012L352.012 736.022L352.025 752.013L336.003 752.022L336.004 784.007L368.022 783.968L368.023 815.998L400.013 815.965L400.017 832.003L511.992 832.009L511.999 848.018L528.012 848.016L528.007 863.98Q519.957 863.786 511.906 863.911L511.921 879.936C507.095 879.849 500.656 878.907 496.002 879.885C484.818 880.334 473.504 879.99 462.308 879.991L399.995 880.013L400.003 863.989L368.003 863.99L367.988 848.01L352.011 848.011L319.996 848.001L272.037 848.033L272.016 831.98L256.029 831.995L256.011 752C256.114 746.674 256.023 741.328 256.024 736.001L272.024 736.021L272.01 751.988L304.006 751.997L304.013 720.025C303.867 714.696 303.994 709.341 304.013 704.009L304.047 688.035Z"/>
	<path fill="#0D0D0D" d="M319.991 816.01L336.013 815.99L336.025 831.988L352.003 831.976L352.011 848.011L319.996 848.001L319.991 816.01Z"/>
	<path fill="#0D0D0D" d="M304.047 688.035L368.006 688.016C367.999 693.339 367.936 698.669 367.989 703.992L368.011 720.002C346.696 720.3 325.333 720.022 304.013 720.025C303.867 714.696 303.994 709.341 304.013 704.009L304.047 688.035Z"/>
	<path fill="#3F4242" d="M304.047 688.035L368.006 688.016C367.999 693.339 367.936 698.669 367.989 703.992L304.013 704.009L304.047 688.035Z"/>
	<path fill="#C96C0C" d="M256.024 736.001L272.024 736.021L272.01 751.988L304.006 751.997L303.99 768.008L320.011 767.976L319.991 816.01L319.996 848.001L272.037 848.033L272.016 831.98L256.029 831.995L256.011 752C256.114 746.674 256.023 741.328 256.024 736.001Z"/>
	<path fill="#0D0D0D" d="M272.01 751.988L304.006 751.997L303.99 768.008L271.993 768.032L272.01 751.988Z"/>
	<path fill="#0D0D0D" d="M303.99 768.008L320.011 767.976L319.991 816.01L303.983 816.025L303.974 800.033L287.986 800.032L287.977 783.984L303.979 783.983L303.99 768.008Z"/>
	<path fill="#3F4242" d="M896.015 144.001L912.016 143.986L912.01 160.014L928.005 160.013L928.029 175.994L960.011 175.991L960.004 192.009L879.989 191.993L879.982 207.996L863.98 207.99L863.981 223.992L847.981 223.983L848.01 239.994L831.974 239.987L832.007 255.987L832.023 272.018L816.013 272.015L816.021 304.018L800.015 304.02L800.02 336.019L784.007 336.021L784.012 383.992L784.006 416.004L799.991 416.007L800.014 448.009L815.98 448.017L815.976 512.017L832.016 511.993L848.017 511.977L848.017 575.991L847.995 608.014L863.983 608.017L863.983 623.996L847.985 623.988L847.969 655.988L831.994 656.011L831.99 688.017L832.006 751.99L815.976 751.975C815.981 762.638 815.822 773.332 816.009 783.992L783.971 783.973C783.975 794.631 783.796 805.332 784.008 815.986L784.026 832.024C773.361 832.018 762.67 832.16 752.007 831.993L751.962 816.035L719.984 815.988C719.654 801.608 719.956 787.153 719.956 772.761L719.958 688.038L703.981 688.029L704.009 623.999L688.022 624.014L688.01 560.007L687.996 543.989L672.007 544.01L671.994 527.988L656.002 527.998L624.018 527.995L624.013 511.991L576.013 511.995L576.009 495.997L607.981 495.993L607.978 479.988L623.984 479.979L623.985 464.018L591.994 464.034L591.986 432.021C592.445 400.036 592.012 367.984 592.015 335.991L624.024 335.969L624.01 400.009L656.013 399.98L656.019 416.017L672.019 415.979L672.022 432L688.025 431.973L688.004 496.03L704.022 496.016L703.973 479.977L720.021 479.974L720.02 495.997L736.027 495.965L736.031 543.995L752.029 543.963L752.005 624.024L768.015 623.994L768.019 752.011L784.005 751.995L783.962 687.982L800.01 687.992L799.96 671.977L816.015 671.995L816.023 544.691C811.141 543.588 804.97 544.14 799.975 544.38C799.969 538.935 799.8 533.435 800.11 527.998L784.01 528.012L784.022 463.981L767.99 463.974L768.002 480.032L752.001 480.021L751.99 464.042L735.993 464.034L735.956 431.995L752.036 432.013L752.014 416.003L736.009 416.009L735.959 400.003L752.036 400.017L751.993 240.031L768.047 240.04L767.974 207.994L816.057 208.043C816.068 197.372 816.216 186.68 815.938 176.012L832.031 176.015L831.936 160.388C835.066 158.988 858.927 159.997 864.04 160.032L863.998 144.018L879.967 144.012L879.968 160.065L896.063 160.051L896.015 144.001Z"/>
	<path fill="#C96C0C" d="M800.11 527.998L816.014 528.008L816.023 544.691C811.141 543.588 804.97 544.14 799.975 544.38C799.969 538.935 799.8 533.435 800.11 527.998Z"/>
	<path fill="#0D0D0D" d="M639.984 496.021L656.004 495.983L656.002 527.998L624.018 527.995L624.013 511.991L639.988 511.988L639.984 496.021Z"/>
	<path fill="#0D0D0D" d="M591.986 432.021L624.015 431.978L623.985 464.018L591.994 464.034L591.986 432.021Z"/>
	<path fill="#0D0D0D" d="M832.016 511.993L848.017 511.977L848.017 575.991L831.996 576.014L832.016 511.993Z"/>
	<path fill="#0D0D0D" d="M623.985 464.018L640.008 463.977L639.984 496.021L639.988 511.988L624.013 511.991L576.013 511.995L576.009 495.997L607.981 495.993L607.978 479.988L623.984 479.979L623.985 464.018Z"/>
	<path fill="#FAAD17" d="M624.004 496.014L639.984 496.021L639.988 511.988L624.013 511.991L624.004 496.014Z"/>
	<path fill="#0D0D0D" d="M799.985 255.976L832.007 255.987L832.023 272.018L816.013 272.015L816.021 304.018L800.015 304.02L800.02 336.019L784.007 336.021L784.012 383.992L768.002 384.009L767.989 303.993L783.982 304L783.989 287.989L799.981 288L799.985 255.976Z"/>
	<path fill="#0D0D0D" d="M704.019 544.003L720.012 544.005L720.01 576.019L736.013 575.985L736.032 607.994L719.994 608L720.031 671.982L736.029 671.974L736.043 687.975L752.033 687.966L752.044 799.977L768.025 799.959L768.04 815.978L784.008 815.986L784.026 832.024C773.361 832.018 762.67 832.16 752.007 831.993L751.962 816.035L719.984 815.988C719.654 801.608 719.956 787.153 719.956 772.761L719.958 688.038L703.981 688.029L704.009 623.999L688.022 624.014L688.01 560.007L704.015 560.023L704.019 544.003Z"/>
	<path fill="#B45E0B" d="M848.003 79.9988L896.02 79.9741L896.009 95.9967C896.005 111.993 895.83 128.007 896.015 144.001L896.063 160.051L879.968 160.065L879.967 144.012L863.998 144.018L864.04 160.032C858.927 159.997 835.066 158.988 831.936 160.388L832.031 176.015L815.938 176.012C816.216 186.68 816.068 197.372 816.057 208.043L767.974 207.994L768.047 240.04L751.993 240.031L752.036 400.017L735.959 400.003L736.009 416.009L752.014 416.003L752.036 432.013L735.956 431.995L735.993 464.034L751.99 464.042L752.001 480.021L768.002 480.032L767.99 463.974L784.022 463.981L784.01 528.012L800.11 527.998C799.8 533.435 799.969 538.935 799.975 544.38C804.97 544.14 811.141 543.588 816.023 544.691L816.015 671.995L799.96 671.977L800.01 687.992L783.962 687.982L784.005 751.995L768.019 752.011L768.015 623.994L752.005 624.024L752.029 543.963L736.031 543.995L736.027 495.965L720.02 495.997L720.021 479.974L703.973 479.977L704.022 496.016L688.004 496.03L688.025 431.973L672.022 432L672.019 415.979L656.019 416.017L656.013 399.98L624.01 400.009L624.024 335.969L592.015 335.991L576.022 336.002L575.994 239.999L575.981 159.991L591.984 159.984L591.977 143.995L607.985 143.984L607.981 127.991L639.992 127.994L671.976 128.024L688.027 128.02L688.015 112.018L752.03 112.017L752.011 80.0129L848.003 79.9988Z"/>
	<path fill="#C96C0C" d="M815.997 159.954C819.528 159.993 829.34 158.88 831.936 160.388L832.031 176.015L815.938 176.012C815.096 174.272 815.964 162.52 815.997 159.954Z"/>
	<path fill="#3F4242" d="M639.992 127.994L671.976 128.024L671.998 144.019L655.989 144L655.995 160.017L640.035 160.005L640.012 144.021L639.992 127.994Z"/>
	<path fill="#0D0D0D" d="M848.003 79.9988L896.02 79.9741L896.009 95.9967L880.005 96.0034L880.016 112.014L864.005 112.023L863.994 96.02L848.01 96.0234L848.003 79.9988Z"/>
	<path fill="#0D0D0D" d="M607.981 127.991L639.992 127.994L640.012 144.021L624.011 144.011L624.027 176.011L592.007 176.012L592.028 240.011L575.994 239.999L575.981 159.991L591.984 159.984L591.977 143.995L607.985 143.984L607.981 127.991Z"/>
	<path fill="#B45E0B" d="M448.01 399.997L448.003 432.021L463.997 432.018L464.006 448.024L479.982 448.023L480.001 464.029L495.98 464.027L495.998 480.03L527.991 480.025L527.994 496.012L576.009 495.997L576.013 511.995L624.013 511.991L624.018 527.995L624.013 560.013L640.001 560.013L640 608.026L655.998 608.029L656 688.027L688.008 688.005L688.031 704.012L671.963 703.999L672.009 720.01L688.012 720.006L688.029 784.021L671.99 784.015L672.03 800.022L655.977 800.004L656.03 816.012L639.984 816.008L640.028 848.015L576.053 847.994C576.027 852.382 575.077 859.981 576.435 863.955C575.176 866.571 575.92 876.57 575.958 879.98L559.993 880.008L543.995 880.02L543.999 864.019L528.007 863.98L528.012 848.016L511.999 848.018L511.992 832.009L512.005 703.981L512.015 688.01L496.007 688.007L496.011 655.998L496.053 639.967L495.951 639.651L496.059 624.329L495.95 624.074L464.026 624.03L464.001 640.02L447.987 639.99L415.981 639.987L415.979 655.983L383.973 655.992L368.013 656.007L368.022 624.028L384.039 624.021L384.006 559.987C378.798 559.956 373.487 559.708 368.297 560.147C364.255 559.85 360.186 560 356.137 560.064L351.998 560.036L352.001 544.014L339.751 544.03L336 543.997L335.999 527.995L335.983 511.98L367.897 511.999L384.012 512.023L384.001 448.001L416.015 448.038L416.018 431.984L399.99 432.013L399.988 415.99L415.991 416.002L415.984 400.007L448.01 399.997Z"/>
	<path fill="#3F4242" d="M512.024 623.925L512.007 640.018L496.053 639.967L495.951 639.651L496.059 624.329C500.762 623.317 507.151 624.046 512.024 623.925Z"/>
	<path fill="#3F4242" d="M527.994 496.012L576.009 495.997L576.013 511.995L528.025 512.011L527.994 496.012Z"/>
	<path fill="#3F4242" d="M576.013 511.995L624.013 511.991L624.018 527.995L576.027 528.014L576.013 511.995Z"/>
	<path fill="#0D0D0D" d="M559.987 671.986L576.018 671.973L576.034 704.026L560.25 704.038L543.991 704.03L543.978 687.988L559.98 687.982L559.987 671.986Z"/>
	<path fill="#3F4242" d="M495.979 543.992L512.006 543.985L512.024 623.925C507.151 624.046 500.762 623.317 496.059 624.329L495.95 624.074C496.764 608.189 496.019 591.905 496.012 575.976L480.02 575.988L480.011 559.995L496.03 560.022L495.979 543.992Z"/>
	<path fill="#0D0D0D" d="M463.977 559.991L480.011 559.995L480.02 575.988L496.012 575.976C496.019 591.905 496.764 608.189 495.95 624.074L464.026 624.03L464.001 640.02L447.987 639.99L447.983 607.984L463.978 607.978L463.977 559.991Z"/>
	<path fill="#0D0D0D" d="M512.005 703.981L528.019 703.973L528.012 720.008L544.025 719.973L544.026 800.005L559.992 800.003L559.995 832.002L575.986 832.002C575.993 837.312 575.841 842.692 576.053 847.994C576.027 852.382 575.077 859.981 576.435 863.955C575.176 866.571 575.92 876.57 575.958 879.98L559.993 880.008L543.995 880.02L543.999 864.019L528.007 863.98L528.012 848.016L511.999 848.018L511.992 832.009L512.005 703.981Z"/>
	<path fill="#313335" d="M528.01 831.87Q543.997 832.074 559.986 832.013L560.007 848.034C565.35 848.015 570.712 847.909 576.053 847.994C576.027 852.382 575.077 859.981 576.435 863.955C575.176 866.571 575.92 876.57 575.958 879.98L559.993 880.008L543.995 880.02L543.999 864.019L528.007 863.98L528.012 848.016L528.01 831.87Z"/>
	<path fill="#0D0D0D" d="M528.012 848.016L544 847.981L543.999 864.019L528.007 863.98L528.012 848.016Z"/>
	<path fill="#0D0D0D" d="M543.999 864.019L559.992 863.985L559.993 880.008L543.995 880.02L543.999 864.019Z"/>
</svg>
